<?xml version="1.0" encoding="UTF-8"?>
<svg xmlns="http://www.w3.org/2000/svg" width="32" height="32" viewBox="0 0 32 32" fill="none">
    <g clip-path="url(#clip0_18_432)">
        <path fill-rule="evenodd" clip-rule="evenodd" d="M31.9508 14.2048H25.734V10.7058C25.734 7.78224 24.5232 5.75237 22.8897 4.52339C21.3587 3.37148 19.5817 3.00804 18.3673 3.00804H13.4762C13.4762 3.00804 11 2.75357 11 5.10744C11 7.46131 13.4762 7.20684 13.4762 7.20684H18.3673C18.9387 7.20684 19.8406 7.40324 20.5419 7.93085C21.1407 8.38139 21.7158 9.15071 21.7158 10.7058V14.2048H18.3673C16.6477 14.2048 15.2256 14.6456 14.0928 15.4266C12.9689 16.2015 12.2552 17.2244 11.8084 18.1882C11.3666 19.1413 11.1702 20.0673 11.0803 20.7355C11.0346 21.0748 11.0145 21.3622 11.0059 21.5731C11.0017 21.6789 11.0002 21.7666 11 21.8332C10.9999 21.8665 11.0001 21.8946 11.0005 21.9172L11.0006 21.9254C11.006 24.3933 11.8892 26.3795 13.3609 27.7251C14.7941 29.0355 16.631 29.6004 18.3673 29.6004C20.0052 29.6004 21.8584 29.1766 23.3368 27.8892C24.8798 26.5456 25.734 24.5069 25.734 21.9026V18.4036H31.8709C30.7096 26.0999 24.0575 32 16.0253 32C7.17476 32 0 24.8366 0 16C0 7.16344 7.17476 0 16.0253 0C24.2679 0 31.0571 6.21329 31.9508 14.2048ZM18.3673 18.4036H21.7158V21.9026C21.7158 23.4971 21.2306 24.2576 20.7644 24.6636C20.2338 25.1256 19.4082 25.4016 18.3673 25.4016C17.4247 25.4016 16.5828 25.0918 16.0069 24.5652C15.4741 24.078 15.0188 23.2731 15.0188 21.9026V21.8698L15.0182 21.8516L15.0182 21.8463C15.0183 21.8309 15.0186 21.7983 15.0206 21.751C15.0244 21.6557 15.0344 21.5057 15.0594 21.3202C15.1107 20.9387 15.2177 20.4651 15.4247 20.0186C15.6267 19.5828 15.9071 19.2062 16.3057 18.9313C16.6955 18.6626 17.3243 18.4036 18.3673 18.4036Z" fill="white" />
    </g>
    <defs>
        <clipPath id="clip0_18_432">
            <rect width="32" height="32" />
        </clipPath>
    </defs>
</svg>
