<svg width="24" height="24" viewBox="0 0 24 24" fill="none" xmlns="http://www.w3.org/2000/svg">
<path fill-rule="evenodd" clip-rule="evenodd" d="M24 10.6536H19.3302V8.02937C19.3302 5.83668 18.4207 4.31427 17.1937 3.39254C16.0436 2.52861 14.7089 2.25603 13.7967 2.25603H10.1227C10.1227 2.25603 8.2627 2.06518 8.2627 3.83058C8.2627 5.59598 10.1227 5.40513 10.1227 5.40513H13.7967C14.2259 5.40513 14.9033 5.55243 15.4301 5.94814C15.8799 6.28604 16.3119 6.86303 16.3119 8.02937V10.6536H13.7967C12.505 10.6536 11.4368 10.9842 10.5859 11.57C9.74166 12.1511 9.20554 12.9183 8.86994 13.6412C8.53809 14.356 8.39055 15.0505 8.32301 15.5516C8.2887 15.8061 8.27359 16.0217 8.26716 16.1798C8.26394 16.2592 8.26286 16.325 8.26271 16.3749C8.26264 16.3999 8.2628 16.421 8.26303 16.4379L8.26312 16.444C8.26718 18.2949 8.9306 19.7846 10.0361 20.7938C11.1126 21.7766 12.4925 22.2003 13.7967 22.2003C15.027 22.2003 16.419 21.8824 17.5296 20.9169C18.6886 19.9092 19.3302 18.3802 19.3302 16.427V13.8027H23.94C23.0677 19.5749 18.0709 24 12.0375 24C5.38936 24 0 18.6274 0 12C0 5.37258 5.38936 0 12.0375 0C18.229 0 23.3287 4.65997 24 10.6536ZM13.7967 13.8027H16.3119V16.427C16.3119 17.6229 15.9475 18.1932 15.5973 18.4977C15.1987 18.8442 14.5785 19.0512 13.7967 19.0512C13.0886 19.0512 12.4563 18.8188 12.0237 18.4239C11.6234 18.0585 11.2814 17.4548 11.2814 16.427V16.4024L11.281 16.3887L11.281 16.3847C11.281 16.3732 11.2813 16.3487 11.2828 16.3133C11.2857 16.2418 11.2931 16.1293 11.3119 15.9902C11.3505 15.704 11.4309 15.3489 11.5864 15.014C11.7381 14.6871 11.9487 14.4046 12.2481 14.1985C12.5409 13.9969 13.0132 13.8027 13.7967 13.8027Z"/>
</svg>
