<svg width="220" height="176" viewBox="0 0 220 176" fill="none" xmlns="http://www.w3.org/2000/svg">
<mask id="mask0_22_27" style="mask-type:alpha" maskUnits="userSpaceOnUse" x="0" y="0" width="220" height="176">
<path fill-rule="evenodd" clip-rule="evenodd" d="M193.598 132V140.8L171.597 140.8C167.842 140.8 161.917 139.565 157.31 136.248C153.375 133.415 149.597 128.578 149.597 118.8V96.8H171.597C182.894 96.8 192.238 94.0283 199.68 89.1179C207.064 84.246 211.753 77.8144 214.689 71.7543C217.591 65.7618 218.882 59.9394 219.472 55.7382C219.772 53.6047 219.905 51.7978 219.961 50.4718C219.989 49.8064 219.999 49.2552 220 48.8366C220 48.6271 219.999 48.4501 219.997 48.3081L219.996 48.2569C219.961 32.74 214.158 20.2517 204.489 11.791C195.073 3.55189 183.004 0 171.597 0C160.836 0 148.66 2.66468 138.947 10.7595C128.809 19.2072 123.197 32.0256 123.197 48.4V70.4L96.8028 70.4V48.4C96.8028 30.0179 88.848 17.255 78.1158 9.52775C68.0566 2.28511 56.3821 0 48.4032 0H4.41871e-10L13.1963 13.2L4.41871e-10 26.4H48.4032C52.1575 26.4 58.0828 27.6349 62.6903 30.9523C66.6246 33.785 70.403 38.6221 70.403 48.4V70.4H48.4032C37.1057 70.4 27.7621 73.1717 20.3198 78.0821C12.9359 82.954 8.24665 89.3856 5.31131 95.4457C2.40875 101.438 1.11831 107.261 0.527519 111.462C0.227496 113.595 0.0953197 115.402 0.039081 116.728C0.010861 117.394 0.00147423 117.945 0.000165035 118.363C-0.000489562 118.573 0.000877328 118.75 0.00295441 118.892L0.00375588 118.943C0.0392059 134.46 5.84185 146.948 15.5112 155.409C24.9272 163.648 36.9961 167.2 48.4032 167.2C59.1643 167.2 71.3397 164.535 81.0534 156.441C91.1905 147.993 96.8028 135.174 96.8028 118.8V96.8L123.197 96.8V118.8C123.197 137.182 131.152 149.945 141.884 157.672C151.943 164.915 163.618 167.2 171.597 167.2L193.598 167.2V176L219.078 154.768C219.558 154.368 219.558 153.632 219.078 153.232L193.598 132ZM149.597 70.4H171.597C178.449 70.4 182.58 68.7717 185.141 67.0821C187.76 65.354 189.602 62.9856 190.929 60.2457C192.289 57.4382 192.993 54.4606 193.33 52.0618C193.494 50.8953 193.559 49.9522 193.585 49.3532C193.597 49.0561 193.6 48.8511 193.6 48.754L193.6 48.7208L193.597 48.6062V48.4C193.597 39.7832 190.605 34.7223 187.104 31.659C183.321 28.3481 177.79 26.4 171.597 26.4C164.758 26.4 159.334 28.1353 155.847 31.0405C152.785 33.5928 149.597 38.3744 149.597 48.4V70.4ZM70.403 96.8H48.4032C41.5508 96.8 37.4195 98.4283 34.8588 100.118C32.2397 101.846 30.3977 104.214 29.0706 106.954C27.7107 109.762 27.0074 112.739 26.6701 115.138C26.506 116.305 26.4406 117.248 26.4152 117.847C26.4026 118.144 26.4001 118.349 26.3998 118.446L26.3998 118.479L26.4034 118.594V118.8C26.4034 127.417 29.3947 132.478 32.8956 135.541C36.6794 138.852 42.2104 140.8 48.4032 140.8C55.242 140.8 60.6664 139.065 64.1526 136.159C67.2154 133.607 70.403 128.826 70.403 118.8V96.8Z" fill="#73FBAB"/>
</mask>
<g mask="url(#mask0_22_27)">
<rect x="-10.9999" y="-17.6" width="239.798" height="202.4" fill="url(#paint0_linear_22_27)"/>
<g opacity="0.5">
<rect x="50.5996" y="96.8" width="167.199" height="70.4" fill="url(#paint1_linear_22_27)" style="mix-blend-mode:exclusion"/>
</g>
<g opacity="0.5">
<rect x="-2.19998" width="171.599" height="70.4" fill="url(#paint2_linear_22_27)" style="mix-blend-mode:hue"/>
</g>
</g>
<defs>
<linearGradient id="paint0_linear_22_27" x1="108.899" y1="-17.6" x2="108.899" y2="184.8" gradientUnits="userSpaceOnUse">
<stop offset="0.375" stop-color="#73FBAB"/>
<stop offset="0.96875" stop-color="#8C1BF7"/>
</linearGradient>
<linearGradient id="paint1_linear_22_27" x1="134.199" y1="96.8" x2="134.199" y2="167.2" gradientUnits="userSpaceOnUse">
<stop offset="0.0729167" stop-color="#01011F"/>
<stop offset="0.380208" stop-color="#C4C4C4" stop-opacity="0"/>
</linearGradient>
<linearGradient id="paint2_linear_22_27" x1="83.5993" y1="0" x2="83.5993" y2="70.4" gradientUnits="userSpaceOnUse">
<stop offset="0.796875" stop-color="#C4C4C4" stop-opacity="0"/>
<stop offset="1" stop-color="#0F8841"/>
</linearGradient>
</defs>
</svg>
